<svg width="73" height="59" viewBox="0 0 73 59" fill="none" xmlns="http://www.w3.org/2000/svg">
<g clip-path="url(#clip0_1_36)">
<path d="M13.2712 58.7068V54.8018C13.2712 53.3046 12.3946 52.3285 10.8921 52.3285C10.141 52.3285 9.32718 52.5889 8.76371 53.435C8.32571 52.719 7.69979 52.3285 6.76077 52.3285C6.13457 52.3285 5.50893 52.5236 5.00791 53.2396V52.4587H3.69334V58.7068H5.00791V55.2572C5.00791 54.151 5.57138 53.6301 6.44795 53.6301C7.32395 53.6301 7.76252 54.216 7.76252 55.2572V58.7068H9.07709V55.2572C9.07709 54.151 9.70273 53.6301 10.5166 53.6301C11.3931 53.6301 11.8311 54.216 11.8311 55.2572V58.7068H13.2712ZM32.7391 52.4587H30.611V50.5713H29.2964V52.4587H28.107V53.695H29.2961V56.559C29.2961 57.9911 29.8596 58.8369 31.3621 58.8369C31.9255 58.8369 32.5512 58.6418 32.9897 58.3815L32.6139 57.2098C32.2383 57.4701 31.8003 57.5354 31.4872 57.5354C30.8613 57.5354 30.611 57.1449 30.611 56.4938V53.695H32.7391V52.4587ZM43.8818 52.3282C43.1307 52.3282 42.63 52.719 42.3169 53.2396V52.4587H41.0023V58.7068H42.3169V55.1923C42.3169 54.151 42.7549 53.5652 43.5687 53.5652C43.8191 53.5652 44.1322 53.6304 44.3826 53.6953L44.7581 52.3938C44.5078 52.3285 44.1322 52.3285 43.8818 52.3285V52.3282ZM27.0428 52.9793C26.4166 52.5236 25.5403 52.3285 24.6013 52.3285C23.0991 52.3285 22.0976 53.1095 22.0976 54.3461C22.0976 55.3876 22.8487 55.9732 24.1633 56.1686L24.7892 56.2338C25.4779 56.3637 25.8534 56.5591 25.8534 56.8846C25.8534 57.34 25.3527 57.6655 24.4761 57.6655C23.5998 57.6655 22.9112 57.34 22.4729 57.0147L21.847 58.056C22.5356 58.5766 23.4746 58.8369 24.4134 58.8369C26.1662 58.8369 27.168 57.9911 27.168 56.8194C27.168 55.7129 26.3541 55.127 25.102 54.932L24.4761 54.8667C23.9126 54.8015 23.4746 54.6716 23.4746 54.2812C23.4746 53.8255 23.9126 53.5652 24.6013 53.5652C25.3527 53.5652 26.1038 53.8904 26.4793 54.0858L27.0428 52.9793ZM61.973 52.3285C61.2216 52.3285 60.7209 52.719 60.4078 53.2396V52.4587H59.0932V58.7068H60.4078V55.1923C60.4078 54.151 60.8461 53.5652 61.6596 53.5652C61.9103 53.5652 62.2234 53.6304 62.4737 53.6953L62.8493 52.3938C62.5989 52.3285 62.2234 52.3285 61.973 52.3285ZM45.1964 55.5827C45.1964 57.4701 46.4482 58.8369 48.389 58.8369C49.2653 58.8369 49.8912 58.6418 50.5171 58.1212L49.8912 57.0147C49.3905 57.4052 48.8898 57.6003 48.3263 57.6003C47.2621 57.6003 46.511 56.8194 46.511 55.5827C46.511 54.4113 47.2621 53.6301 48.3263 53.5652C48.8898 53.5652 49.3905 53.7603 49.8912 54.151L50.5171 53.0445C49.8912 52.5236 49.2653 52.3285 48.389 52.3285C46.4482 52.3285 45.1964 53.6953 45.1964 55.5827ZM57.3406 55.5827V52.4587H56.0261V53.2396C55.5878 52.6541 54.9619 52.3285 54.148 52.3285C52.4579 52.3285 51.1433 53.6953 51.1433 55.5827C51.1433 57.4701 52.4579 58.8369 54.148 58.8369C55.0243 58.8369 55.6505 58.5117 56.0261 57.9258V58.7068H57.3406V55.5827ZM52.5204 55.5827C52.5204 54.4763 53.209 53.5652 54.3357 53.5652C55.3999 53.5652 56.1513 54.4113 56.1513 55.5827C56.1513 56.6892 55.3999 57.6003 54.3357 57.6003C53.209 57.5351 52.5204 56.6892 52.5204 55.5827ZM36.8083 52.3285C35.0554 52.3285 33.8033 53.6301 33.8033 55.5827C33.8033 57.5354 35.0551 58.8369 36.8707 58.8369C37.747 58.8369 38.6236 58.5766 39.3122 57.9911L38.686 57.0147C38.1853 57.4052 37.5594 57.6655 36.9334 57.6655C36.1196 57.6655 35.3058 57.2751 35.1178 56.1683H39.5626V55.648C39.6253 53.6301 38.4987 52.3285 36.8083 52.3285ZM36.8083 53.4999C37.6218 53.4999 38.1856 54.0209 38.3105 54.9972H35.1806C35.3058 54.151 35.8692 53.4999 36.8083 53.4999ZM69.4221 55.5827V49.9854H68.1076V53.2396C67.6693 52.6541 67.0434 52.3285 66.2295 52.3285C64.5394 52.3285 63.2248 53.6953 63.2248 55.5827C63.2248 57.4701 64.5394 58.8369 66.2295 58.8369C67.1061 58.8369 67.732 58.5117 68.1076 57.9258V58.7068H69.4221V55.5827ZM64.6022 55.5827C64.6022 54.4763 65.2905 53.5652 66.4175 53.5652C67.4817 53.5652 68.2328 54.4113 68.2328 55.5827C68.2328 56.6892 67.4817 57.6003 66.4175 57.6003C65.2905 57.5351 64.6022 56.6892 64.6022 55.5827ZM20.6576 55.5827V52.4587H19.343V53.2396C18.9047 52.6541 18.2788 52.3285 17.465 52.3285C15.7748 52.3285 14.4603 53.6953 14.4603 55.5827C14.4603 57.4701 15.7748 58.8369 17.465 58.8369C18.3415 58.8369 18.9675 58.5117 19.343 57.9258V58.7068H20.6576V55.5827ZM15.7748 55.5827C15.7748 54.4763 16.4635 53.5652 17.5901 53.5652C18.6544 53.5652 19.4057 54.4113 19.4057 55.5827C19.4057 56.6892 18.6544 57.6003 17.5901 57.6003C16.4635 57.5351 15.7748 56.6892 15.7748 55.5827Z" fill="black"/>
<path d="M26.6045 5.01144H46.3231V41.8497H26.6045V5.01144Z" fill="#FF5F00"/>
<path d="M27.8566 23.4307C27.8566 15.946 31.2369 9.30718 36.4324 5.01144C32.6142 1.88741 27.7942 0 22.5359 0C10.0783 0 0 10.4786 0 23.4307C0 36.3825 10.0783 46.8614 22.5356 46.8614C27.7939 46.8614 32.6139 44.974 36.4324 41.8497C31.2369 37.6192 27.8566 30.9154 27.8566 23.4307Z" fill="#EB001B"/>
<path d="M72.9276 23.4307C72.9276 36.3825 62.8493 46.8614 50.392 46.8614C45.1337 46.8614 40.3137 44.974 36.4951 41.8497C41.7534 37.5542 45.0712 30.9154 45.0712 23.4307C45.0712 15.946 41.6907 9.30718 36.4951 5.01144C40.3134 1.88741 45.1337 0 50.392 0C62.8493 0 72.9276 10.5438 72.9276 23.4307Z" fill="#F79E1B"/>
</g>
<defs>
<clipPath id="clip0_1_36">
<rect width="73" height="59" fill="white"/>
</clipPath>
</defs>
</svg>
