<svg width="42" height="39" viewBox="0 0 42 39" fill="none" xmlns="http://www.w3.org/2000/svg">
<g clip-path="url(#clip0_1_45)">
<path d="M21 0C9.40209 0 0 8.73067 0 19.5C0 30.2701 9.40226 39 21 39C32.5987 39 42 30.2701 42 19.5C42 8.73143 32.5987 0.00106641 20.9997 0.00106641L20.9998 0.000152344L21 0ZM30.6303 28.1248C30.2541 28.6976 29.4466 28.8792 28.8297 28.5276C23.8991 25.731 17.6923 25.0976 10.3825 26.6484C10.044 26.72 9.68881 26.6637 9.39494 26.4921C9.10107 26.3205 8.89262 26.0476 8.81541 25.7333C8.77693 25.5777 8.77189 25.4166 8.80056 25.2592C8.82923 25.1018 8.89105 24.9512 8.98249 24.816C9.07392 24.6808 9.19318 24.5637 9.33342 24.4714C9.47366 24.3791 9.63214 24.3133 9.79978 24.278C17.7995 22.5808 24.6611 23.3115 30.1965 26.4528C30.8134 26.8044 31.009 27.552 30.6303 28.1248ZM33.2007 22.8152C32.7265 23.5304 31.7185 23.7563 30.9487 23.3162C25.304 20.0944 16.6994 19.1613 10.0229 21.0432C9.15698 21.2861 8.2425 20.833 7.97967 20.0303C7.71881 19.2262 8.20706 18.3786 9.07151 18.1342C16.698 15.9853 26.1791 17.0262 32.6616 20.7251C33.4313 21.1654 33.6746 22.1013 33.2007 22.8152ZM33.4213 17.2861C26.6531 13.5531 15.4865 13.2097 9.02459 15.0311C7.98689 15.3233 6.88948 14.7793 6.57513 13.8158C6.26062 12.8517 6.84584 11.8335 7.88435 11.5405C15.3021 9.44943 27.6337 9.85359 35.4259 14.1491C36.3613 14.6634 36.6671 15.7828 36.1129 16.6483C35.5614 17.5151 34.3526 17.8008 33.4223 17.2861H33.4213Z" fill="#1ED760"/>
</g>
<defs>
<clipPath id="clip0_1_45">
<rect width="42" height="39" fill="white"/>
</clipPath>
</defs>
</svg>
