<svg width="57" height="56" viewBox="0 0 57 56" fill="none" xmlns="http://www.w3.org/2000/svg">
<g clip-path="url(#clip0_1_52)">
<path d="M0 0H56.9786V55.979H0V0Z" fill="black"/>
<path d="M31.545 9.02891L31.5301 17.4204L31.515 25.8118L30.8123 23.8639L30.8109 23.8602L29.9029 42.5418C30.7958 45.019 31.274 46.3413 31.2794 46.3466C31.2863 46.3536 31.7953 46.3837 32.41 46.4137C34.2728 46.5045 36.5813 46.699 38.3325 46.9129C38.7379 46.9623 39.0868 46.9877 39.108 46.9691C39.1289 46.9507 39.1403 38.4066 39.1334 27.9823L39.1205 9.02891H31.545V9.02891ZM17.8432 9.00375V27.9764C17.8432 38.4114 17.8537 46.9593 17.8664 46.9717C17.879 46.9842 18.5368 46.9232 19.3281 46.8361C20.1192 46.7491 21.2129 46.6408 21.7582 46.5955C22.5945 46.5262 25.0913 46.3684 25.3803 46.3667C25.4645 46.3663 25.4698 45.9401 25.4821 38.3309L25.495 30.2953L26.0991 31.9747L26.3128 32.5682L27.2206 13.8911L26.9086 13.0248C26.4427 11.7301 25.9764 10.4356 25.5097 9.14112L25.4596 9.00375H17.8432V9.00375Z" fill="#B1060F" stroke="black" stroke-width="2.956"/>
<path d="M17.8432 9.00375V19.6536L25.4794 39.5546C25.4803 39.0985 25.4812 38.8522 25.4821 38.3309L25.495 30.2953L26.0991 31.9747C29.4621 41.3236 31.2687 46.3361 31.2794 46.3466C31.2863 46.3536 31.7953 46.3837 32.41 46.4137C34.2728 46.5045 36.5813 46.699 38.3325 46.9129C38.7379 46.9623 39.0868 46.9877 39.108 46.9691C39.1222 46.9564 39.1318 42.7669 39.1343 36.857L31.5337 15.3888L31.5301 17.4204L31.515 25.8118L30.8123 23.8639C30.1256 21.9605 29.6671 20.6876 26.9086 13.0248C26.4427 11.7301 25.9764 10.4356 25.5097 9.14112L25.4596 9.00375H17.8432V9.00375Z" fill="url(#paint0_radial_1_52)"/>
<path d="M17.8434 9.00375L25.495 30.305V30.2953L26.0991 31.9747C29.4621 41.3236 31.2687 46.3361 31.2794 46.3466C31.2863 46.3536 31.7953 46.3837 32.4101 46.4137C34.2728 46.5045 36.5813 46.699 38.3325 46.9129C38.7359 46.9621 39.0828 46.9873 39.1073 46.9693L31.5148 25.8081V25.8118L30.8121 23.8639C30.1254 21.9605 29.6669 20.6876 26.9084 13.0248C26.1666 10.9642 25.5371 9.21681 25.5095 9.14112L25.4594 9.00375H17.8434V9.00375Z" fill="#E50914"/>
<path d="M31.545 9.02891L31.5301 17.4204L31.515 25.8118L30.8123 23.8639L30.8109 23.8602L29.9029 42.5418C30.7958 45.019 31.274 46.3413 31.2794 46.3466C31.2863 46.3536 31.7953 46.3837 32.41 46.4137C34.2728 46.5045 36.5813 46.699 38.3325 46.9129C38.7379 46.9623 39.0868 46.9877 39.108 46.9691C39.1289 46.9507 39.1403 38.4066 39.1334 27.9823L39.1205 9.02891H31.545V9.02891ZM17.8432 9.00375V27.9764C17.8432 38.4114 17.8537 46.9593 17.8664 46.9717C17.879 46.9842 18.5368 46.9232 19.3281 46.8361C20.1192 46.7491 21.2129 46.6408 21.7582 46.5955C22.5945 46.5262 25.0913 46.3684 25.3803 46.3667C25.4645 46.3663 25.4698 45.9401 25.4821 38.3309L25.495 30.2953L26.0991 31.9747L26.3128 32.5682L27.2206 13.8911L26.9086 13.0248C26.4427 11.7301 25.9764 10.4356 25.5097 9.14112L25.4596 9.00375H17.8432V9.00375Z" fill="#B1060F" stroke="black" stroke-width="2.956"/>
<path d="M17.8432 9.00375V19.6536L25.4794 39.5546C25.4803 39.0985 25.4812 38.8522 25.4821 38.3309L25.495 30.2953L26.0991 31.9747C29.4621 41.3236 31.2687 46.3361 31.2794 46.3466C31.2863 46.3536 31.7953 46.3837 32.41 46.4137C34.2728 46.5045 36.5813 46.699 38.3325 46.9129C38.7379 46.9623 39.0868 46.9877 39.108 46.9691C39.1222 46.9564 39.1318 42.7669 39.1343 36.857L31.5337 15.3888L31.5301 17.4204L31.515 25.8118L30.8123 23.8639C30.1256 21.9605 29.6671 20.6876 26.9086 13.0248C26.4427 11.7301 25.9764 10.4356 25.5097 9.14112L25.4596 9.00375H17.8432V9.00375Z" fill="url(#paint1_radial_1_52)"/>
<path d="M17.8434 9.00375L25.495 30.305V30.2953L26.0991 31.9747C29.4621 41.3236 31.2687 46.3361 31.2794 46.3466C31.2863 46.3536 31.7953 46.3837 32.4101 46.4137C34.2728 46.5045 36.5813 46.699 38.3325 46.9129C38.7359 46.9621 39.0828 46.9873 39.1073 46.9693L31.5148 25.8081V25.8118L30.8121 23.8639C30.1254 21.9605 29.6669 20.6876 26.9084 13.0248C26.1666 10.9642 25.5371 9.21681 25.5095 9.14112L25.4594 9.00375H17.8434V9.00375Z" fill="#E50914"/>
</g>
<defs>
<radialGradient id="paint0_radial_1_52" cx="0" cy="0" r="1" gradientUnits="userSpaceOnUse" gradientTransform="translate(1047.05 1038.74) scale(1499.7 1473.4)">
<stop/>
<stop offset="1" stop-opacity="0"/>
</radialGradient>
<radialGradient id="paint1_radial_1_52" cx="0" cy="0" r="1" gradientUnits="userSpaceOnUse" gradientTransform="translate(1047.05 1038.74) scale(1499.7 1473.4)">
<stop/>
<stop offset="1" stop-opacity="0"/>
</radialGradient>
<clipPath id="clip0_1_52">
<rect width="57" height="56" rx="5" fill="white"/>
</clipPath>
</defs>
</svg>
